<svg width="32" height="32" viewBox="0 0 32 32" fill="none" xmlns="http://www.w3.org/2000/svg">
<circle cx="16" cy="16" r="16" fill="white"/>
<path d="M18.5792 14.6755C21.5268 14.0751 23.2932 12.6792 23.3866 12.6042C24.2492 11.9125 24.3877 10.6525 23.696 9.78989C23.0044 8.92736 21.7445 8.7888 20.8817 9.48043C20.8635 9.49518 18.9796 10.9404 15.8798 10.9425C12.7801 10.9404 10.8563 9.49518 10.8381 9.48043C9.97532 8.7888 8.71545 8.92736 8.02382 9.78989C7.33209 10.6525 7.47065 11.9125 8.33318 12.6042C8.4279 12.6802 10.2672 14.1125 13.2974 14.6988L9.07422 19.1124C8.30673 19.9084 8.32981 21.1757 9.12575 21.9432C9.51424 22.3178 10.0149 22.504 10.5152 22.504C11.0397 22.504 11.5637 22.2991 11.9565 21.8916L15.8799 17.7122L20.1995 21.9187C20.9822 22.7001 22.2495 22.6988 23.0307 21.9165C23.8119 21.134 23.8109 19.8665 23.0285 19.0853L18.5792 14.6755Z" fill="#F7781C"/>
<path d="M15.8801 10.9425C15.874 10.9425 15.8861 10.9426 15.8801 10.9428C15.8741 10.9426 15.8863 10.9425 15.8801 10.9425Z" fill="#F7781C"/>
</svg>
