<svg width="37" height="37" viewBox="0 0 37 37" fill="none" xmlns="http://www.w3.org/2000/svg">
<rect width="37" height="37" rx="18.5" fill="white"/>
<path d="M19.1018 9.46509C16.5181 9.46509 14.4237 11.5616 14.4237 14.1477C14.4237 16.7338 16.5181 18.8304 19.1018 18.8304C21.6855 18.8304 23.7799 16.7338 23.7799 14.1477C23.7799 11.5616 21.6855 9.46509 19.1018 9.46509ZM19.1018 16.0835C18.0338 16.0835 17.168 15.2168 17.168 14.1477C17.168 13.0787 18.0338 12.2121 19.1018 12.2121C20.1698 12.2121 21.0357 13.0787 21.0357 14.1477C21.0357 15.2168 20.1698 16.0835 19.1018 16.0835Z" fill="#CC5B1C"/>
<path d="M20.7537 22.5562C22.6266 22.1743 23.7489 21.2865 23.8082 21.2389C24.3563 20.799 24.4443 19.9976 24.0048 19.449C23.5654 18.9005 22.7649 18.8124 22.2167 19.2522C22.2051 19.2616 21.0081 20.1807 19.0386 20.1821C17.0692 20.1807 15.8468 19.2616 15.8353 19.2522C15.2871 18.8124 14.4866 18.9005 14.0472 19.449C13.6077 19.9976 13.6957 20.799 14.2437 21.2389C14.3039 21.2872 15.4725 22.1981 17.3979 22.571L14.7146 25.3779C14.2269 25.8841 14.2416 26.6901 14.7473 27.1782C14.9941 27.4165 15.3123 27.5349 15.6301 27.5349C15.9634 27.5349 16.2963 27.4045 16.5459 27.1454L19.0387 24.4874L21.7832 27.1626C22.2805 27.6596 23.0857 27.6588 23.5821 27.1612C24.0784 26.6636 24.0778 25.8575 23.5807 25.3606L20.7537 22.5562Z" fill="#CC5B1C"/>
<path d="M19.0388 20.1822C19.0346 20.1822 19.043 20.1823 19.0388 20.1824C19.0346 20.1823 19.0431 20.1822 19.0388 20.1822Z" fill="#CC5B1C"/>
</svg>
