<svg width="839" height="914" viewBox="0 0 839 914" fill="none" xmlns="http://www.w3.org/2000/svg">
<g clip-path="url(#clip0_98_694)">
<rect width="839" height="914" rx="40" fill="#F7781C"/>
<circle cx="419.5" cy="6.5" r="212.5" fill="white"/>
<path d="M407.447 81.1089C393.063 81.1089 383.31 76.8726 378.187 68.4C373.064 59.9274 370.502 48.7948 370.502 35.0022V24.9533H414.244V45.3467C414.244 47.9081 414.343 50.1741 414.54 52.1444C414.737 53.9178 415.131 55.297 415.722 56.2822C416.51 57.0704 417.594 57.4644 418.973 57.4644C420.353 57.4644 421.338 57.1689 421.929 56.5778C422.52 55.7896 422.914 54.8044 423.111 53.6222C423.505 52.243 423.702 50.8637 423.702 49.4844V35.8889C423.702 30.963 422.717 27.3178 420.747 24.9533C418.776 22.5889 416.018 20.717 412.471 19.3378C409.121 17.7615 405.181 15.9881 400.649 14.0178C396.511 12.2444 392.373 10.077 388.236 7.51555C384.098 4.75703 380.65 1.11185 377.891 -3.42001C375.33 -8.1489 374.049 -14.1585 374.049 -21.4489V-29.7245C374.049 -41.7437 376.512 -51.103 381.438 -57.8022C386.561 -64.6985 395.624 -69.0334 408.629 -70.8067L435.524 -71.3978C449.12 -70.0185 458.282 -65.5852 463.011 -58.0978C467.937 -50.8074 470.4 -40.3645 470.4 -26.7689V-17.3111H428.431V-35.9311C428.431 -39.8719 428.136 -42.7289 427.544 -44.5022C426.953 -46.4726 425.574 -47.4578 423.407 -47.4578C421.436 -47.4578 420.156 -46.6696 419.564 -45.0934C418.973 -43.7141 418.678 -41.9408 418.678 -39.7733V-25.8822C418.678 -21.3504 420.057 -17.9022 422.816 -15.5378C425.574 -13.1733 428.825 -11.4 432.569 -10.2178C436.51 -9.03557 440.253 -7.75483 443.8 -6.37557C448.135 -4.79927 452.273 -2.63186 456.213 0.126658C460.351 2.68814 463.701 6.13628 466.262 10.4711C469.021 14.8059 470.4 20.4215 470.4 27.3178V37.9578C470.4 44.263 469.809 50.0756 468.627 55.3956C467.444 60.7156 465.376 65.3459 462.42 69.2867C459.661 73.0304 456.016 75.9859 451.484 78.1533C446.953 80.1237 441.239 81.1089 434.342 81.1089H407.447ZM399.762 72.5378H431.682L426.067 112.438H394.147L399.762 72.5378ZM416.609 -105.682H448.529L442.913 -51.3H410.993L416.609 -105.682Z" fill="#F7781C"/>
<circle cx="419.5" cy="456.5" r="212.5" fill="white"/>
<path d="M407.447 531.109C393.063 531.109 383.31 526.873 378.187 518.4C373.064 509.927 370.502 498.795 370.502 485.002V474.953H414.244V495.347C414.244 497.908 414.343 500.174 414.54 502.144C414.737 503.918 415.131 505.297 415.722 506.282C416.51 507.07 417.594 507.464 418.973 507.464C420.353 507.464 421.338 507.169 421.929 506.578C422.52 505.79 422.914 504.804 423.111 503.622C423.505 502.243 423.702 500.864 423.702 499.484V485.889C423.702 480.963 422.717 477.318 420.747 474.953C418.776 472.589 416.018 470.717 412.471 469.338C409.121 467.761 405.181 465.988 400.649 464.018C396.511 462.244 392.373 460.077 388.236 457.516C384.098 454.757 380.65 451.112 377.891 446.58C375.33 441.851 374.049 435.841 374.049 428.551V420.276C374.049 408.256 376.512 398.897 381.438 392.198C386.561 385.301 395.624 380.967 408.629 379.193L435.524 378.602C449.12 379.981 458.282 384.415 463.011 391.902C467.937 399.193 470.4 409.636 470.4 423.231V432.689H428.431V414.069C428.431 410.128 428.136 407.271 427.544 405.498C426.953 403.527 425.574 402.542 423.407 402.542C421.436 402.542 420.156 403.33 419.564 404.907C418.973 406.286 418.678 408.059 418.678 410.227V424.118C418.678 428.65 420.057 432.098 422.816 434.462C425.574 436.827 428.825 438.6 432.569 439.782C436.51 440.964 440.253 442.245 443.8 443.624C448.135 445.201 452.273 447.368 456.213 450.127C460.351 452.688 463.701 456.136 466.262 460.471C469.021 464.806 470.4 470.421 470.4 477.318V487.958C470.4 494.263 469.809 500.076 468.627 505.396C467.444 510.716 465.376 515.346 462.42 519.287C459.661 523.03 456.016 525.986 451.484 528.153C446.953 530.124 441.239 531.109 434.342 531.109H407.447ZM399.762 522.538H431.682L426.067 562.438H394.147L399.762 522.538ZM416.609 344.318H448.529L442.913 398.7H410.993L416.609 344.318Z" fill="#F7781C"/>
<circle cx="419.5" cy="906.5" r="212.5" fill="white"/>
<path d="M407.447 981.109C393.063 981.109 383.31 976.873 378.187 968.4C373.064 959.927 370.502 948.795 370.502 935.002V924.953H414.244V945.347C414.244 947.908 414.343 950.174 414.54 952.144C414.737 953.918 415.131 955.297 415.722 956.282C416.51 957.07 417.594 957.464 418.973 957.464C420.353 957.464 421.338 957.169 421.929 956.578C422.52 955.79 422.914 954.804 423.111 953.622C423.505 952.243 423.702 950.864 423.702 949.484V935.889C423.702 930.963 422.717 927.318 420.747 924.953C418.776 922.589 416.018 920.717 412.471 919.338C409.121 917.761 405.181 915.988 400.649 914.018C396.511 912.244 392.373 910.077 388.236 907.516C384.098 904.757 380.65 901.112 377.891 896.58C375.33 891.851 374.049 885.841 374.049 878.551V870.276C374.049 858.256 376.512 848.897 381.438 842.198C386.561 835.301 395.624 830.967 408.629 829.193L435.524 828.602C449.12 829.981 458.282 834.415 463.011 841.902C467.937 849.193 470.4 859.636 470.4 873.231V882.689H428.431V864.069C428.431 860.128 428.136 857.271 427.544 855.498C426.953 853.527 425.574 852.542 423.407 852.542C421.436 852.542 420.156 853.33 419.564 854.907C418.973 856.286 418.678 858.059 418.678 860.227V874.118C418.678 878.65 420.057 882.098 422.816 884.462C425.574 886.827 428.825 888.6 432.569 889.782C436.51 890.964 440.253 892.245 443.8 893.624C448.135 895.201 452.273 897.368 456.213 900.127C460.351 902.688 463.701 906.136 466.262 910.471C469.021 914.806 470.4 920.421 470.4 927.318V937.958C470.4 944.263 469.809 950.076 468.627 955.396C467.444 960.716 465.376 965.346 462.42 969.287C459.661 973.03 456.016 975.986 451.484 978.153C446.953 980.124 441.239 981.109 434.342 981.109H407.447ZM399.762 972.538H431.682L426.067 1012.44H394.147L399.762 972.538ZM416.609 794.318H448.529L442.913 848.7H410.993L416.609 794.318Z" fill="#F7781C"/>
</g>
<defs>
<clipPath id="clip0_98_694">
<rect width="839" height="914" rx="40" fill="white"/>
</clipPath>
</defs>
</svg>
